<?xml version="1.0" standalone="no"?>
<!DOCTYPE svg PUBLIC "-//W3C//DTD SVG 1.1//EN" "http://www.w3.org/Graphics/SVG/1.1/DTD/svg11.dtd" >
<svg xmlns="http://www.w3.org/2000/svg">
<metadata></metadata>
<defs>
<font id="oxfam_global_headlineregular" horiz-adv-x="1482" >
<font-face units-per-em="2048" ascent="1638" descent="-410" />
<missing-glyph horiz-adv-x="512" />
<glyph unicode="&#xd;" horiz-adv-x="512" />
<glyph horiz-adv-x="0" />
<glyph horiz-adv-x="0" />
<glyph unicode=" "  horiz-adv-x="512" />
<glyph unicode="&#x09;" horiz-adv-x="512" />
<glyph unicode="&#xa0;" horiz-adv-x="512" />
<glyph unicode="!" horiz-adv-x="598" d="M111 420l12 1055l393 12l-29 -1055zM119 -25v338l368 -16l-8 -326z" />
<glyph unicode="&#x22;" horiz-adv-x="1040" d="M82 1450l369 20l20 -587h-369zM610 883v587l369 21l-21 -608h-348z" />
<glyph unicode="#" horiz-adv-x="1394" d="M102 307l41 338h146v168h-187l41 358h146v211l338 -20l-4 -191h208l5 211h297l-5 -211h164l-41 -358h-127l-4 -168h172l-41 -338h-135l-4 -237l-297 20l2 217h-207l-4 -258l-317 21v237h-187zM614 645h209l2 168h-207z" />
<glyph unicode="$" horiz-adv-x="1067" d="M2 135l213 242q23 -29 57.5 -49.5t63.5 -20.5q45 0 77.5 29t32.5 82q0 35 -22.5 62.5t-55 54t-72.5 58.5t-73 79t-55.5 112.5t-22.5 161.5q0 43 16.5 93.5t51.5 99.5t87 91t126 66l-4 252l311 -16v-213q72 -12 138.5 -39t111.5 -59l-135 -297q-18 14 -39 23t-49 9 q-53 0 -87 -30.5t-34 -83.5q0 -33 23.5 -59.5t58.5 -54.5t75 -60.5t74.5 -77.5t58 -105.5t23.5 -144.5q0 -70 -20.5 -126t-55 -100t-79.5 -76t-92 -54l6 -271l-312 17v202q-106 10 -213.5 55.5t-183.5 147.5z" />
<glyph unicode="%" horiz-adv-x="1921" d="M102 1096q0 84 35 164l101 133q45 37 101 58.5t128 21.5q76 0 141.5 -27t114.5 -76t77.5 -118.5t28.5 -155.5q0 -96 -33.5 -167t-86 -118t-117 -69.5t-125.5 -22.5q-76 0 -142.5 26.5t-115.5 75.5t-78 119t-29 156zM367 1098q0 -53 30.5 -79t69.5 -26q37 0 67.5 25.5 t30.5 79.5q0 51 -30.5 76.5t-67.5 25.5q-33 0 -59 -20l-29 -33q-12 -22 -12 -49zM410 76l819 1433l284 -141l-819 -1434zM1092 344q0 78 29.5 152.5t88.5 130.5l185 90q8 4 26 4h35q76 0 141.5 -26.5t114.5 -76t78 -119t29 -155.5q0 -70 -17.5 -126t-48.5 -99l-96 -92 q-47 -31 -98.5 -45.5t-102.5 -14.5q-76 0 -142.5 26.5t-115.5 76t-77.5 119t-28.5 155.5z" />
<glyph unicode="&#x26;" horiz-adv-x="1339" d="M39 471q0 109 47 213l107 133q-41 47 -66 111.5t-25 148.5q0 90 31 163t84 125t125 80t154 28q78 0 141 -23t111 -61l108 -140q39 -78 39 -172q0 -123 -61 -219q88 -66 137 -168l141 137l223 -225l-219 -213l219 -211l-223 -225l-207 197q-72 -86 -174 -126t-201 -40 q-102 0 -192 34.5t-156.5 98t-104.5 153.5t-38 201zM393 473q0 -68 42 -101.5t95 -33.5q51 0 92.5 34t41.5 101q0 66 -41 99.5t-93 33.5q-43 0 -81 -26l-35 -43q-21 -31 -21 -64zM399 1079q0 -49 31 -73.5t66 -24.5q41 0 71.5 24.5t30.5 73.5q0 23 -14 45l-27 33 q-12 8 -27.5 14.5t-33.5 6.5q-35 0 -66 -26t-31 -73z" />
<glyph unicode="'" horiz-adv-x="542" d="M82 883v608l379 -21l-21 -608z" />
<glyph unicode="(" horiz-adv-x="897" d="M61 739q0 164 46.5 297t128.5 234l194 170q94 57 198.5 85.5t215.5 28.5l-10 -354q-80 0 -152 -28.5t-126 -87t-87 -145.5t-33 -202q0 -96 29 -184t82 -153.5t130 -104.5t175 -39l25 -354q-180 0 -331 71.5t-258.5 189.5t-167 268.5t-59.5 307.5z" />
<glyph unicode=")" horiz-adv-x="897" d="M20 1554q180 0 331 -71.5t258.5 -189t167 -268.5t59.5 -308q0 -195 -67 -346.5t-176.5 -256t-249.5 -158.5t-290 -54l10 354q80 0 152 28.5t126 87t87 145.5t33 202q0 72 -16.5 137.5t-45.5 122.5l-94 125q-51 45 -116.5 70.5t-143.5 25.5z" />
<glyph unicode="*" horiz-adv-x="1032" d="M49 1087l88 279l195 -59l-17 196h373l-29 -213l236 35l68 -238l-187 -65l117 -199l-258 -176l-129 176l-172 -182l-217 164l159 203z" />
<glyph unicode="+" horiz-adv-x="1155" d="M82 883h324v323l346 -20v-293l301 -10l-21 -308h-280v-342l-346 21v303l-304 18z" />
<glyph unicode="," horiz-adv-x="522" d="M88 -258l6 563l406 -20l-117 -564z" />
<glyph unicode="-" horiz-adv-x="1011" d="M102 535l4 415l824 -6l-21 -389z" />
<glyph unicode="." horiz-adv-x="522" d="M68 319h395l-17 -356l-374 -6z" />
<glyph unicode="/" horiz-adv-x="1193" d="M0 51l778 1548l416 -190l-778 -1548z" />
<glyph unicode="0" horiz-adv-x="1521" d="M66 584v311q27 94 74 189t110 161q111 113 237.5 163t257.5 50q135 0 257 -51t217.5 -141t158 -212t78.5 -263l-2 -170q-20 -117 -73.5 -222.5t-133.5 -188.5t-181 -138.5t-218 -69.5h-184q-111 12 -209.5 63.5t-176 130t-133 178t-79.5 210.5zM479 709 q0 -59 21.5 -110.5t58.5 -89.5t86 -59.5t103 -21.5q55 0 103 22.5t84 61.5t56.5 90.5t20.5 108.5q0 63 -22.5 114.5t-59.5 88t-85 57t-97 20.5q-76 0 -138 -41l-94 -98q-37 -68 -37 -143z" />
<glyph unicode="1" horiz-adv-x="950" d="M66 1192l376 270l344 -8v-1444h-460l14 955l-254 -156z" />
<glyph unicode="2" horiz-adv-x="1183" d="M31 1143q51 104 128 179t187 120q47 16 91 22t89 6q63 0 135 -13t134 -32q80 -37 124 -75.5t68 -67.5q35 -41 64.5 -93t48.5 -118q4 -18 3 -39t-1 -41q0 -72 -12.5 -121t-16.5 -57q-14 -39 -40.5 -82t-54.5 -80t-48.5 -61.5t-22.5 -26.5q-23 -18 -49.5 -40.5t-51 -45 t-45 -42t-32.5 -32.5h338l8 -403h-977l-6 350q72 61 141.5 109.5t137.5 107.5q45 39 85 76t70.5 66.5t49 48l22.5 22.5q35 41 60.5 94.5t25.5 114.5q0 35 -12.5 55.5t-28.5 36.5q-29 27 -64.5 33t-58.5 4q-35 -8 -67 -26q-29 -16 -60 -45t-55 -76z" />
<glyph unicode="3" horiz-adv-x="1236" d="M31 332l346 168q12 -23 29.5 -42.5t37.5 -35.5q25 -18 73 -36.5t79 -18.5q33 0 60.5 12t47 30.5t29.5 41t10 43.5q0 41 -25.5 79.5t-92.5 42.5l-107 7l-6 251l90 5q66 10 98.5 33.5t38.5 70.5q-4 63 -38.5 96t-69.5 43q-12 4 -26.5 4h-31.5q-31 -4 -69.5 -23.5 t-67.5 -41.5q-31 -29 -57 -78l-318 186l23 45q25 39 63.5 85.5t98 85t144.5 65.5t202 27q25 0 62.5 -5.5t77.5 -14.5t77 -20.5t63 -25.5q86 -45 159 -128t102 -224v-27q0 -35 -5.5 -72.5t-17.5 -76.5t-33.5 -75t-54.5 -65q25 -14 50.5 -35.5t47 -51t34.5 -68.5t13 -88 q0 -78 -18.5 -140.5t-46 -109.5t-58 -79t-57.5 -50q-51 -43 -110.5 -69.5t-118 -41t-110.5 -19.5t-91 -5q-72 0 -140.5 22.5t-126 53t-98 63.5t-57.5 55q-31 41 -55.5 77t-48.5 75z" />
<glyph unicode="4" horiz-adv-x="1353" d="M76 668l569 798l430 -4l12 -790l197 -4v-365l-197 -8l5 -287h-390l-4 268l-585 13z" />
<glyph unicode="5" horiz-adv-x="1161" d="M33 287l295 168q49 -84 133 -123l55 -8q14 0 39 2t49 12q29 12 51.5 44t22.5 73t-12 75q-10 27 -39 49.5t-47 30.5q-37 16 -94.5 24.5t-137.5 8.5h-196v776h895v-356h-472l-2 -145q100 -4 183 -19l98 -31q29 -12 65.5 -41.5t59.5 -50.5q39 -35 58.5 -74.5t41.5 -91.5 q10 -51 15.5 -95t5.5 -85q0 -74 -25.5 -149.5t-73.5 -122.5l-73 -74q-72 -57 -172.5 -97t-220.5 -40q-68 0 -130.5 17.5t-115.5 45.5q-51 27 -89 57.5t-68 66.5t-53.5 74t-45.5 79z" />
<glyph unicode="6" horiz-adv-x="1196" d="M74 616q0 86 26.5 180.5t67.5 185.5t90 173t94 145q55 78 116.5 137.5t121.5 106.5l323 -186q-61 -43 -110 -94.5t-74 -87.5q-63 -68 -90 -109t-37 -70q8 0 36 -1t56 -5q27 -6 64 -19.5t78 -31.5t80.5 -42t70.5 -50l133 -184q16 -49 24.5 -94.5t8.5 -90.5 q0 -37 -13.5 -94t-29.5 -98q-35 -84 -86 -144l-92 -84q-66 -45 -138.5 -68.5t-156.5 -23.5q-104 0 -193.5 33t-154.5 90l-96 105q-23 33 -37.5 56t-24.5 47t-18.5 54.5t-18.5 77.5q-10 45 -15 95t-5 91zM449 492q0 -29 10 -56.5t30.5 -51.5t50 -38t68.5 -14q23 0 41.5 6 t40.5 16l55 60q25 33 25 80t-29.5 85.5t-70.5 61.5q-31 10 -62 10q-72 0 -115.5 -46.5t-43.5 -112.5z" />
<glyph unicode="7" horiz-adv-x="1228" d="M104 1415l1012 33v-410l-452 -1083l-435 137l414 912l-514 -7z" />
<glyph unicode="8" horiz-adv-x="1257" d="M119 440q0 68 34.5 127.5t71.5 118.5l33 23l-35 32q-57 66 -80.5 150t-23.5 164q0 68 34.5 125t71.5 116l172 127q27 14 65 26.5t78 20t77.5 11.5t66.5 4q111 0 201 -39t152.5 -102.5t96 -143.5t33.5 -162q0 -74 -28.5 -156.5t-87.5 -150.5l-9 -6q59 -63 92 -142t33 -157 q0 -74 -28.5 -156t-87.5 -151l-88 -82q-137 -90 -312 -90q-86 0 -172 19.5t-157 70.5l-99 94q-57 66 -80.5 148.5t-23.5 160.5zM494 428q0 -61 45 -100t98 -39q33 0 74 20l49 49q20 29 20 72q0 59 -43 99t-100 40t-100 -42t-43 -99zM508 1022q0 -51 39 -87t90 -36t90 37 t39 86q0 57 -41 92t-88 35q-33 0 -66 -16l-45 -46q-18 -31 -18 -65z" />
<glyph unicode="9" horiz-adv-x="1175" d="M43 999q0 59 12.5 115.5t42.5 120.5l152 190q74 53 149.5 77t161.5 24q78 0 164 -24.5t168 -86.5l98 -100q59 -74 86 -157t27 -175v-58.5t-2 -54.5q-6 -68 -17.5 -122t-23.5 -93t-21.5 -63.5t-11.5 -32.5q-6 -20 -20.5 -50t-29.5 -59.5t-29.5 -55t-20.5 -38.5 q-29 -47 -50.5 -81.5t-43.5 -67.5q-10 -14 -37 -47t-61 -71t-68.5 -73.5t-59.5 -54.5l-344 152q61 55 105.5 106t79.5 98q35 35 67.5 87.5t48.5 93.5h-41q-31 4 -60.5 12t-64.5 16q-29 6 -54.5 19.5t-53.5 29.5q-66 37 -112 86.5t-76.5 105.5t-45 115.5t-14.5 116.5z M420 1008q0 -20 5 -41t17 -39l54 -58q41 -23 86 -22q33 0 61.5 13t50 35t33.5 50.5t12 59.5q0 68 -48 113.5t-109 45.5q-29 0 -54.5 -8t-60.5 -37l-37 -51q-10 -31 -10 -61z" />
<glyph unicode=":" horiz-adv-x="522" d="M68 319h395l-17 -356l-374 -6zM68 1042h395l-17 -356l-374 -6z" />
<glyph unicode=";" horiz-adv-x="522" d="M88 -258l6 563l406 -20l-117 -564zM88 1042h395l-17 -356l-374 -6z" />
<glyph unicode="&#x3c;" horiz-adv-x="1015" d="M102 575l21 330l672 369l125 -352l-474 -193l496 -231l-147 -312z" />
<glyph unicode="=" horiz-adv-x="1114" d="M102 346v313l891 7l25 -314zM102 801l7 309h909l-25 -330z" />
<glyph unicode="&#x3e;" horiz-adv-x="1015" d="M76 498l450 217l-450 248l145 311l703 -369l-11 -330l-675 -389z" />
<glyph unicode="?" horiz-adv-x="1116" d="M29 950q-2 141 47 243.5t129 167t184.5 95.5t212.5 31q68 0 128.5 -17.5t113.5 -48.5l166 -164q63 -104 63 -229q0 -78 -24.5 -161t-69.5 -148l-227 -342l-334 172l203 311l16 29q10 14 18.5 38.5t8.5 43.5q0 51 -39 88t-90 37q-55 -2 -93.5 -36t-46.5 -112zM375 -29 l10 332l389 14v-337z" />
<glyph unicode="@" horiz-adv-x="1832" d="M127 651q0 178 61.5 333t175 269.5t274.5 180t359 65.5q164 0 295 -50t223.5 -134t141.5 -196.5t49 -237.5q0 -106 -33 -198.5t-102.5 -160t-179 -105.5t-261.5 -38h-108v86q-23 -27 -57.5 -43t-87.5 -16q-113 0 -190 75.5t-77 229.5q0 61 18.5 114.5t51.5 93t77 62.5 t97 23t91 -12.5t73 -47.5v86h199v-377q84 10 133 61.5t49 168.5q0 80 -33 140t-91 102t-139 62.5t-175 20.5q-129 0 -224.5 -46t-160 -120.5t-96 -172t-31.5 -197.5q0 -115 40.5 -198t110.5 -137t160 -80t186 -26q68 0 131.5 4.5t128.5 20.5l23 -324q-39 -10 -72 -16 t-69.5 -10t-79.5 -5t-101 -1q-184 0 -329.5 56t-245 156.5t-152.5 237.5t-53 301z" />
<glyph unicode="A" d="M10 -8l475 1442h568l424 -1434l-428 -4l-78 272h-447l-88 -282z" />
<glyph unicode="B" horiz-adv-x="1218" d="M129 4l39 1454l528 -8q90 -2 167 -34t134.5 -87t89 -128t31.5 -157q0 -86 -33 -161.5t-94 -122.5q66 -59 108 -139t42 -172t-35 -174t-94.5 -143.5t-141.5 -97.5t-174 -36z" />
<glyph unicode="C" horiz-adv-x="1392" d="M61 758q0 70 16.5 152.5t53.5 165.5t94.5 160t139 136.5t189.5 95t245 35.5q135 0 262 -46t237 -138l-268 -416q-41 53 -99.5 81t-121.5 28q-57 0 -109.5 -22.5t-91.5 -61.5t-62.5 -91.5t-23.5 -109.5q0 -59 23.5 -110.5t62.5 -90.5t91.5 -61.5t109.5 -22.5q68 0 130 32 t103 91l316 -356l-82 -82q-100 -70 -213 -104.5t-229 -34.5q-104 0 -207 28.5t-197 85.5l-244 236q-61 96 -93 202.5t-32 217.5z" />
<glyph unicode="D" horiz-adv-x="1355" d="M115 -29l41 1493h415q154 0 290 -58t237.5 -159.5t160 -237.5t58.5 -290q0 -219 -119 -410l-233 -233q-90 -53 -188.5 -79t-198.5 -26h-463zM575 446q57 0 106.5 21.5t86.5 58.5t58.5 86.5t21.5 106.5q0 55 -21.5 104t-58.5 86t-87 59.5t-106 22.5v-545z" />
<glyph unicode="E" horiz-adv-x="1187" d="M152 1415l866 17l8 -351l-410 -8l-4 -205l430 -2v-377h-430v-184l426 12l9 -327l-891 -21z" />
<glyph unicode="F" horiz-adv-x="1165" d="M131 1491l950 -27l-10 -350l-440 12v-317h436v-324h-436v-471h-463z" />
<glyph unicode="G" horiz-adv-x="1689" d="M90 774q0 152 57.5 291t158 244.5t237.5 169t299 63.5q184 0 332 -69q2 0 26.5 -10.5t59 -29t73.5 -46t70 -62.5l-281 -311q-12 12 -37.5 23.5t-56.5 18.5t-63.5 12t-61.5 5q-59 0 -119.5 -22.5t-109.5 -64.5t-81 -103.5t-32 -139.5q0 -86 51.5 -165.5t161.5 -124.5 q55 -23 109 -23q51 0 108.5 11.5t104.5 37.5q23 10 40 26.5t27 31.5q6 8 11.5 16t9.5 18l-264 35v285h669l39 -178q-4 -121 -45 -226.5t-119 -228.5l-129 -129q-98 -72 -216 -107.5t-240 -35.5q-129 0 -252 41t-228 123l-145 145q-80 98 -122 224t-42 255z" />
<glyph unicode="H" horiz-adv-x="1574" d="M143 -8v1483h387v-465h471v473h431v-1491h-431v459h-471v-459h-387z" />
<glyph unicode="I" horiz-adv-x="778" d="M143 -35v1465h492v-1465h-492z" />
<glyph unicode="J" horiz-adv-x="1220" d="M10 434v28.5t2 41.5l406 -6q0 -61 31.5 -90t74.5 -29t76 31.5t33 78.5v949h471v-955q0 -162 -88 -303l-172 -172q-66 -39 -139.5 -58.5t-147.5 -19.5q-113 0 -212 40t-174 107.5t-118 160t-43 196.5z" />
<glyph unicode="K" horiz-adv-x="1409" d="M143 -20v1493h435v-467l432 438l317 -250l-459 -475l510 -572l-350 -210l-450 489v-446h-435z" />
<glyph unicode="L" horiz-adv-x="1110" d="M143 1464h469v-1079l457 12l10 -407l-927 -27z" />
<glyph unicode="M" horiz-adv-x="2052" d="M139 -23l64 1469l682 -4l133 -576l139 564l633 12l154 -1432l-445 -4l-86 1020l-221 -1046h-350l-230 1073l-47 -1082z" />
<glyph unicode="N" horiz-adv-x="1619" d="M121 -8v1460h457l444 -985l4 956l436 9l-18 -1418l-588 -14l-373 834v-842h-362z" />
<glyph unicode="O" horiz-adv-x="1636" d="M63 780q0 219 119 410l234 233q90 53 188.5 79t198.5 26q176 0 318.5 -66.5t242.5 -176t154.5 -248t54.5 -279.5q0 -129 -41 -252t-127 -230l-127 -124q-100 -72 -214 -107t-230 -35q-125 0 -245 40t-224 120l-142 141q-80 104 -120 224t-40 245zM524 750 q0 -63 24.5 -115.5t64.5 -90.5t91.5 -58.5t104.5 -20.5q76 0 145 41l101 100q41 70 41 146q0 57 -23.5 109t-62.5 90t-91.5 60.5t-109.5 22.5q-59 0 -110.5 -22.5t-90.5 -61.5t-61.5 -91t-22.5 -109z" />
<glyph unicode="P" horiz-adv-x="1218" d="M145 -4v1497h433q119 0 223 -45t183 -124t124 -183t45 -223q0 -121 -45 -225.5t-123 -183.5t-183.5 -124t-223.5 -45v-344h-433zM578 721q43 0 80.5 16.5t65.5 44t44 65.5t16 81t-16 79.5t-44 64.5t-65.5 45.5t-80.5 17.5v-414z" />
<glyph unicode="Q" horiz-adv-x="1632" d="M57 692q0 217 119 412l236 233q92 53 188 79t201 26q176 0 318.5 -67.5t243.5 -176t155.5 -248t54.5 -280.5q0 -129 -43 -252t-123 -225l106 -115l-260 -191l-88 109q-90 -37 -168.5 -55.5t-167.5 -18.5q-260 0 -469 160l-141 141q-78 102 -120 222t-42 247zM520 662 q0 -59 23.5 -111.5t62.5 -91.5t91.5 -60.5t107.5 -21.5q12 0 22.5 1t22.5 3l-82 96l242 148l61 -68q23 55 23 107q0 59 -23.5 111t-63.5 90t-92.5 60.5t-109.5 22.5q-59 0 -110.5 -22.5t-90.5 -61.5t-61.5 -91t-22.5 -111z" />
<glyph unicode="R" horiz-adv-x="1292" d="M125 -6v1497h432q117 0 219.5 -45t179 -122t121.5 -179.5t45 -218.5q0 -96 -29.5 -181.5t-82.5 -156.5l290 -557l-419 -62l-199 404q-29 -6 -59.5 -10.5t-63.5 -4.5v-364h-434z" />
<glyph unicode="S" horiz-adv-x="1116" d="M45 207l285 182q4 -10 17 -29.5t36 -39t53.5 -35t71.5 -15.5q51 0 85 40t34 87q0 92 -150 142q-78 27 -141.5 66.5t-114.5 90.5q-29 29 -53.5 57.5t-43 62.5t-29.5 78t-11 105q0 49 9 103.5t34 108t65.5 104.5t104.5 96q61 43 140 74t200 31q111 0 193.5 -37t130.5 -78 l77 -84l-237 -227q-6 12 -23.5 23t-39 21.5t-44 16.5t-43.5 6q-66 0 -99.5 -35t-33.5 -80q0 -70 72 -116q18 -12 45 -21.5t55 -25.5q29 -16 64.5 -34.5t76.5 -41.5q92 -47 136.5 -100.5t70.5 -122.5q12 -35 22.5 -70t10.5 -76q0 -80 -17.5 -148.5t-47.5 -125.5 q-31 -57 -82.5 -104.5t-113.5 -81t-131 -52t-136 -18.5q-45 0 -92.5 8t-91.5 22.5t-82.5 33t-69.5 38.5q-106 76 -162 201z" />
<glyph unicode="T" horiz-adv-x="1200" d="M47 975v489h1092v-489h-312v-987h-419v987h-361z" />
<glyph unicode="U" horiz-adv-x="1679" d="M90 657v777h479v-777q0 -127 66.5 -205.5t177.5 -78.5q109 0 177.5 74.5t68.5 209.5v736l497 20v-756q0 -111 -25.5 -216t-84.5 -201l-227 -238q-92 -53 -192 -78.5t-202 -25.5q-111 0 -226.5 39.5t-219.5 119.5l-141 142q-78 102 -113 219t-35 239z" />
<glyph unicode="V" horiz-adv-x="1497" d="M20 1475h494l277 -887l274 866h416l-494 -1458l-473 -21z" />
<glyph unicode="W" horiz-adv-x="2000" d="M123 1434h434l86 -1004l223 1004h408l213 -906l84 938l391 -20l-145 -1438l-588 6l-176 756l-138 -745l-643 -7z" />
<glyph unicode="X" horiz-adv-x="1546" d="M0 -20l489 757l-458 676l491 2l215 -346l211 352l516 -10l-442 -706l479 -695l-481 -4l-225 361l-238 -392z" />
<glyph unicode="Y" horiz-adv-x="1562" d="M8 1456l428 41l297 -514l391 524l449 -82l-594 -800v-639h-510v657z" />
<glyph unicode="Z" horiz-adv-x="1468" d="M86 -10l606 1102h-569l6 405l1118 -2l-6 -403l-401 -723h536l-47 -383z" />
<glyph unicode="[" horiz-adv-x="892" d="M143 -61v1595h709l-41 -344h-330l25 -928h346l-21 -328z" />
<glyph unicode="\" horiz-adv-x="1193" d="M0 1409l373 182l778 -1548l-373 -182z" />
<glyph unicode="]" horiz-adv-x="892" d="M41 283h330l20 921l-350 6l41 324h668l-21 -1595h-668z" />
<glyph unicode="^" horiz-adv-x="1671" d="M102 -2q0 84 21.5 171t62.5 167t98.5 147.5t129.5 114.5q-72 55 -129.5 125t-97.5 147.5t-62.5 163.5t-22.5 174q0 123 39 244t125 223l123 125q98 68 210 101.5t220 33.5q242 0 455 -153l141 -137q76 -111 115 -223.5t39 -235.5q0 -106 -30 -205.5t-85 -192.5l-201 -196 q45 -35 97.5 -85t99.5 -128q35 -61 56.5 -107.5t32.5 -88.5t15.5 -83t4.5 -92l-441 -10q0 74 -41 140.5t-119 101.5q-47 20 -102 20h-56.5t-51.5 -10q-68 -35 -118 -85t-59 -153zM555 1227q0 -72 28.5 -126t72.5 -89t96.5 -52.5t97.5 -17.5q47 0 96 19.5t89 56.5t64.5 88 t24.5 115q0 63 -25.5 116.5t-67.5 92t-95 59t-107 20.5q-76 0 -141 -39l-94 -96q-20 -35 -29.5 -72.5t-9.5 -74.5z" />
<glyph unicode="_" horiz-adv-x="1024" d="M0 -133h1024v-348h-1024v348z" />
<glyph unicode="`" horiz-adv-x="1024" d="M162 1638l80 273l622 -166l-69 -244z" />
<glyph unicode="a" d="M10 -8l475 1442h568l424 -1434l-428 -4l-78 272h-447l-88 -282z" />
<glyph unicode="b" horiz-adv-x="1218" d="M129 4l39 1454l528 -8q90 -2 167 -34t134.5 -87t89 -128t31.5 -157q0 -86 -33 -161.5t-94 -122.5q66 -59 108 -139t42 -172t-35 -174t-94.5 -143.5t-141.5 -97.5t-174 -36z" />
<glyph unicode="c" horiz-adv-x="1392" d="M61 758q0 70 16.5 152.5t53.5 165.5t94.5 160t139 136.5t189.5 95t245 35.5q135 0 262 -46t237 -138l-268 -416q-41 53 -99.5 81t-121.5 28q-57 0 -109.5 -22.5t-91.5 -61.5t-62.5 -91.5t-23.5 -109.5q0 -59 23.5 -110.5t62.5 -90.5t91.5 -61.5t109.5 -22.5q68 0 130 32 t103 91l316 -356l-82 -82q-100 -70 -213 -104.5t-229 -34.5q-104 0 -207 28.5t-197 85.5l-244 236q-61 96 -93 202.5t-32 217.5z" />
<glyph unicode="d" horiz-adv-x="1355" d="M115 -29l41 1493h415q154 0 290 -58t237.5 -159.5t160 -237.5t58.5 -290q0 -219 -119 -410l-233 -233q-90 -53 -188.5 -79t-198.5 -26h-463zM575 446q57 0 106.5 21.5t86.5 58.5t58.5 86.5t21.5 106.5q0 55 -21.5 104t-58.5 86t-87 59.5t-106 22.5v-545z" />
<glyph unicode="e" horiz-adv-x="1187" d="M152 1415l866 17l8 -351l-410 -8l-4 -205l430 -2v-377h-430v-184l426 12l9 -327l-891 -21z" />
<glyph unicode="f" horiz-adv-x="1165" d="M131 1491l950 -27l-10 -350l-440 12v-317h436v-324h-436v-471h-463z" />
<glyph unicode="g" horiz-adv-x="1689" d="M90 774q0 152 57.5 291t158 244.5t237.5 169t299 63.5q184 0 332 -69q2 0 26.5 -10.5t59 -29t73.5 -46t70 -62.5l-281 -311q-12 12 -37.5 23.5t-56.5 18.5t-63.5 12t-61.5 5q-59 0 -119.5 -22.5t-109.5 -64.5t-81 -103.5t-32 -139.5q0 -86 51.5 -165.5t161.5 -124.5 q55 -23 109 -23q51 0 108.5 11.5t104.5 37.5q23 10 40 26.5t27 31.5q6 8 11.5 16t9.5 18l-264 35v285h669l39 -178q-4 -121 -45 -226.5t-119 -228.5l-129 -129q-98 -72 -216 -107.5t-240 -35.5q-129 0 -252 41t-228 123l-145 145q-80 98 -122 224t-42 255z" />
<glyph unicode="h" horiz-adv-x="1574" d="M143 -8v1483h387v-465h471v473h431v-1491h-431v459h-471v-459h-387z" />
<glyph unicode="i" horiz-adv-x="778" d="M143 -35v1465h492v-1465h-492z" />
<glyph unicode="j" horiz-adv-x="1220" d="M10 434v28.5t2 41.5l406 -6q0 -61 31.5 -90t74.5 -29t76 31.5t33 78.5v949h471v-955q0 -162 -88 -303l-172 -172q-66 -39 -139.5 -58.5t-147.5 -19.5q-113 0 -212 40t-174 107.5t-118 160t-43 196.5z" />
<glyph unicode="k" horiz-adv-x="1409" d="M143 -20v1493h435v-467l432 438l317 -250l-459 -475l510 -572l-350 -210l-450 489v-446h-435z" />
<glyph unicode="l" horiz-adv-x="1110" d="M143 1464h469v-1079l457 12l10 -407l-927 -27z" />
<glyph unicode="m" horiz-adv-x="2052" d="M139 -23l64 1469l682 -4l133 -576l139 564l633 12l154 -1432l-445 -4l-86 1020l-221 -1046h-350l-230 1073l-47 -1082z" />
<glyph unicode="n" horiz-adv-x="1619" d="M121 -8v1460h457l444 -985l4 956l436 9l-18 -1418l-588 -14l-373 834v-842h-362z" />
<glyph unicode="o" horiz-adv-x="1636" d="M63 780q0 219 119 410l234 233q90 53 188.5 79t198.5 26q176 0 318.5 -66.5t242.5 -176t154.5 -248t54.5 -279.5q0 -129 -41 -252t-127 -230l-127 -124q-100 -72 -214 -107t-230 -35q-125 0 -245 40t-224 120l-142 141q-80 104 -120 224t-40 245zM524 750 q0 -63 24.5 -115.5t64.5 -90.5t91.5 -58.5t104.5 -20.5q76 0 145 41l101 100q41 70 41 146q0 57 -23.5 109t-62.5 90t-91.5 60.5t-109.5 22.5q-59 0 -110.5 -22.5t-90.5 -61.5t-61.5 -91t-22.5 -109z" />
<glyph unicode="p" horiz-adv-x="1218" d="M145 -4v1497h433q119 0 223 -45t183 -124t124 -183t45 -223q0 -121 -45 -225.5t-123 -183.5t-183.5 -124t-223.5 -45v-344h-433zM578 721q43 0 80.5 16.5t65.5 44t44 65.5t16 81t-16 79.5t-44 64.5t-65.5 45.5t-80.5 17.5v-414z" />
<glyph unicode="q" horiz-adv-x="1632" d="M57 692q0 217 119 412l236 233q92 53 188 79t201 26q176 0 318.5 -67.5t243.5 -176t155.5 -248t54.5 -280.5q0 -129 -43 -252t-123 -225l106 -115l-260 -191l-88 109q-90 -37 -168.5 -55.5t-167.5 -18.5q-260 0 -469 160l-141 141q-78 102 -120 222t-42 247zM520 662 q0 -59 23.5 -111.5t62.5 -91.5t91.5 -60.5t107.5 -21.5q12 0 22.5 1t22.5 3l-82 96l242 148l61 -68q23 55 23 107q0 59 -23.5 111t-63.5 90t-92.5 60.5t-109.5 22.5q-59 0 -110.5 -22.5t-90.5 -61.5t-61.5 -91t-22.5 -111z" />
<glyph unicode="r" horiz-adv-x="1292" d="M125 -6v1497h432q117 0 219.5 -45t179 -122t121.5 -179.5t45 -218.5q0 -96 -29.5 -181.5t-82.5 -156.5l290 -557l-419 -62l-199 404q-29 -6 -59.5 -10.5t-63.5 -4.5v-364h-434z" />
<glyph unicode="s" horiz-adv-x="1116" d="M45 207l285 182q4 -10 17 -29.5t36 -39t53.5 -35t71.5 -15.5q51 0 85 40t34 87q0 92 -150 142q-78 27 -141.5 66.5t-114.5 90.5q-29 29 -53.5 57.5t-43 62.5t-29.5 78t-11 105q0 49 9 103.5t34 108t65.5 104.5t104.5 96q61 43 140 74t200 31q111 0 193.5 -37t130.5 -78 l77 -84l-237 -227q-6 12 -23.5 23t-39 21.5t-44 16.5t-43.5 6q-66 0 -99.5 -35t-33.5 -80q0 -70 72 -116q18 -12 45 -21.5t55 -25.5q29 -16 64.5 -34.5t76.5 -41.5q92 -47 136.5 -100.5t70.5 -122.5q12 -35 22.5 -70t10.5 -76q0 -80 -17.5 -148.5t-47.5 -125.5 q-31 -57 -82.5 -104.5t-113.5 -81t-131 -52t-136 -18.5q-45 0 -92.5 8t-91.5 22.5t-82.5 33t-69.5 38.5q-106 76 -162 201z" />
<glyph unicode="t" horiz-adv-x="1200" d="M47 975v489h1092v-489h-312v-987h-419v987h-361z" />
<glyph unicode="u" horiz-adv-x="1679" d="M90 657v777h479v-777q0 -127 66.5 -205.5t177.5 -78.5q109 0 177.5 74.5t68.5 209.5v736l497 20v-756q0 -111 -25.5 -216t-84.5 -201l-227 -238q-92 -53 -192 -78.5t-202 -25.5q-111 0 -226.5 39.5t-219.5 119.5l-141 142q-78 102 -113 219t-35 239z" />
<glyph unicode="v" horiz-adv-x="1497" d="M20 1475h494l277 -887l274 866h416l-494 -1458l-473 -21z" />
<glyph unicode="w" horiz-adv-x="2000" d="M123 1434h434l86 -1004l223 1004h408l213 -906l84 938l391 -20l-145 -1438l-588 6l-176 756l-138 -745l-643 -7z" />
<glyph unicode="x" horiz-adv-x="1546" d="M0 -20l489 757l-458 676l491 2l215 -346l211 352l516 -10l-442 -706l479 -695l-481 -4l-225 361l-238 -392z" />
<glyph unicode="y" horiz-adv-x="1562" d="M8 1456l428 41l297 -514l391 524l449 -82l-594 -800v-639h-510v657z" />
<glyph unicode="z" horiz-adv-x="1468" d="M86 -10l606 1102h-569l6 405l1118 -2l-6 -403l-401 -723h536l-47 -383z" />
<glyph unicode="{" horiz-adv-x="806" d="M20 573l5 324h172v190q0 217 117.5 329t332.5 118l129 4l10 -319h-129q-59 0 -99 -41t-40 -101v-696q0 -59 40 -100t99 -41h91l28 -303h-129q-215 0 -332.5 114.5t-117.5 331.5v190h-177z" />
<glyph unicode="|" horiz-adv-x="741" d="M143 -41l21 1548h454l-20 -1548h-455z" />
<glyph unicode="}" horiz-adv-x="806" d="M20 256h130q59 0 99 41t40 100v697q0 59 -40 100t-99 41h-91l-28 303h129q215 0 332.5 -114.5t117.5 -331.5v-191h176l-4 -323h-172v-191q0 -217 -117.5 -328.5t-332.5 -117.5l-129 -4z" />
<glyph unicode="~" horiz-adv-x="1486" d="M82 645q0 76 29.5 144.5t83 121t129 84t165.5 31.5q98 0 163 -36t111 -79t84 -78.5t85 -35.5q41 0 68.5 23.5t27.5 70.5q0 23 -5 40t-11 27l295 127q35 -41 66.5 -104t31.5 -143q0 -123 -45 -203t-106.5 -126t-127 -64.5t-106.5 -18.5q-102 0 -175 39t-130.5 86 t-104.5 86t-96 39q-43 0 -69.5 -25.5t-26.5 -64.5q0 -31 24 -68l-319 -74q-20 43 -30.5 99.5t-10.5 101.5z" />
<glyph unicode="&#xa1;" horiz-adv-x="598" d="M86 -90l29 1055l377 12l-13 -1055zM115 1100l8 325l360 -4v-338z" />
<glyph unicode="&#xa2;" horiz-adv-x="1103" d="M61 602q0 88 27 176t78 163t125 132t170 88l4 244l311 6l-2 -237q143 -31 262 -132l-223 -325q-27 35 -67.5 53t-83.5 18q-39 0 -74 -15t-60.5 -41.5t-41 -61.5t-15.5 -74t15.5 -74t41 -60.5t60.5 -40.5t74 -15q47 0 89 21.5t68 59.5l264 -319l-65 -66 q-121 -84 -260 -102l-2 -197l-332 -8l2 248q-35 16 -66.5 34.5t-62.5 43.5l-109 108q-66 84 -96.5 179.5t-30.5 193.5z" />
<glyph unicode="&#xa3;" horiz-adv-x="1331" d="M55 510l6 379l152 -2q2 131 49 240.5t126 188.5t184.5 123t226.5 44q59 0 122.5 -12.5t126 -41t121 -74.5t109.5 -116l-279 -262q-57 106 -170 106q-90 0 -133 -58t-43 -132v-14l330 -5l-16 -385l-314 7v-136l602 19l-14 -367l-1028 -16v510z" />
<glyph unicode="&#xa4;" horiz-adv-x="1290" d="M59 348l172 168q-35 78 -34 176q0 111 51 207l-189 197l226 198l188 -196q76 31 162 30q98 0 184 -38l182 172l228 -238l-195 -172q25 -74 25 -150q0 -80 -33 -161l176 -191l-217 -215l-168 174q-88 -47 -196 -47q-72 0 -144 23l-176 -166zM518 686q0 -53 37 -87t82 -34 q16 0 31.5 5t29.5 14l41 41q16 25 17 63q0 47 -35 81t-84 34q-47 0 -83 -35t-36 -82z" />
<glyph unicode="&#xa5;" horiz-adv-x="1331" d="M35 1315l407 158l228 -472l291 441l387 -150l-318 -463l156 -2l6 -247l-328 4v-95l320 11l-10 -252l-310 -10v-271h-454v258l-324 -10l8 254l316 8v113l-310 4l9 254l172 -4z" />
<glyph unicode="&#xa6;" horiz-adv-x="741" d="M143 -41l11 621h454l-10 -621h-455zM154 907l10 600h454l-10 -600h-454z" />
<glyph unicode="&#xa7;" horiz-adv-x="1077" d="M61 637q0 86 38 172t120 139q-39 47 -55.5 100.5t-16.5 114.5v30.5t3 31.5q14 68 50 125t89 99t119.5 66.5t144.5 24.5h14l262 -6l-4 -299l-186 4h-6q-47 0 -81 -24.5t-34 -65.5q0 -43 29.5 -69t103.5 -44t140.5 -53t116.5 -86t79 -120.5t29 -158.5q0 -94 -41 -177 t-101 -130q27 -51 42.5 -109.5t15.5 -123.5q0 -10 -1 -18.5t-1 -18.5q-14 -66 -51 -123t-97.5 -99t-142.5 -66.5t-184 -24.5q-12 0 -24.5 1t-24.5 1l-248 10v280l278 -4q49 0 82 26t33 67q0 47 -31 75.5t-117 46.5q-92 20 -156.5 62.5t-105.5 97.5t-60.5 118.5t-19.5 127.5z M416 621q0 -49 36.5 -81t84.5 -32q14 0 29.5 3t27.5 13l43 39q6 14 11 28.5t5 31.5q0 47 -35.5 79.5t-80.5 32.5q-51 0 -86 -33.5t-35 -80.5z" />
<glyph unicode="&#xa8;" horiz-adv-x="1024" d="M123 1855l319 -8l-8 -297l-307 -4zM573 1851l308 4l4 -309l-297 -4z" />
<glyph unicode="&#xa9;" horiz-adv-x="1634" d="M63 780q0 219 119 410q41 66 94.5 125t139.5 108q90 53 188.5 79t198.5 26q197 0 341 -66.5t239.5 -176t142.5 -248t47 -279.5q0 -129 -41 -252t-127 -230l-127 -124q-100 -72 -214 -107t-230 -35q-125 0 -245 40t-224 120l-142 141q-80 104 -120 224t-40 245zM315 768 q0 -113 43 -206t115 -159.5t162 -103.5t186 -37q72 0 136.5 18.5t125.5 53.5q55 35 100.5 78t76.5 100q37 59 55 126t18 134q0 104 -38 197.5t-107.5 164t-167.5 112.5t-219 42q-104 0 -192.5 -43t-154 -114.5t-102.5 -166t-37 -196.5zM465 774q0 51 14.5 104.5t42.5 100.5 l117 111q90 57 192 57q137 0 250 -96l-145 -232q-16 23 -43 35t-53 12q-41 0 -74 -32.5t-33 -79.5q0 -43 33 -74t74 -31q29 0 55.5 11.5t42.5 33.5l176 -194l-41 -41q-53 -35 -109.5 -53.5t-111.5 -18.5q-133 0 -236 80l-71 70q-80 104 -80 237z" />
<glyph unicode="&#xaa;" horiz-adv-x="837" d="M35 457l8 258l760 -13v-266zM66 803l215 631h303l188 -627l-242 -2l-45 117h-135l-47 -121z" />
<glyph unicode="&#xab;" horiz-adv-x="1318" d="M10 723l414 559l268 -205l-266 -366l301 -375l-272 -227zM596 750l424 520l268 -172l-244 -359l236 -338l-266 -194z" />
<glyph unicode="&#xac;" horiz-adv-x="1155" d="M82 883h971l-6 -650l-326 11v331h-619z" />
<glyph unicode="&#xad;" horiz-adv-x="1011" d="M102 535l4 415l824 -6l-21 -389z" />
<glyph unicode="&#xae;" horiz-adv-x="1112" d="M63 1028q0 92 34 182t97.5 162t155.5 116t209 44q121 0 213 -47t153.5 -120t92.5 -159t31 -164q0 -82 -24 -160.5t-77 -144.5l-90 -92q-135 -106 -303 -106q-76 0 -150.5 23.5t-140.5 68.5l-84 82q-55 68 -86 149.5t-31 165.5zM231 1038q0 -70 25 -130t68 -105t100 -70.5 t123 -25.5q61 0 120.5 23.5t104.5 66.5t72.5 103t27.5 134q0 66 -23.5 127.5t-65.5 108.5t-98 74.5t-124 27.5t-127 -26.5t-104 -72.5t-72 -106.5t-27 -128.5zM387 809v465h148q80 0 137 -45t57 -131q0 -57 -39 -103l98 -174l-155 -18l-68 123q-8 -2 -24 -2v-115h-154z" />
<glyph unicode="&#xaf;" horiz-adv-x="1024" d="M166 1825l661 6l-6 -270l-653 4z" />
<glyph unicode="&#xb0;" horiz-adv-x="821" d="M61 1079q0 86 44.5 162t115.5 135q45 27 89 38t91 11q82 0 148.5 -30.5t113 -80.5t72 -114.5t25.5 -130.5q0 -59 -20.5 -115.5t-57.5 -103.5l-59 -59q-92 -68 -205 -68q-117 0 -215 76l-68 65q-37 47 -55.5 102.5t-18.5 112.5zM287 1077q0 -49 35.5 -85t85.5 -36 q47 0 82.5 36t35.5 85q0 33 -18 60l-41 41q-27 16 -59 16q-47 0 -84 -32t-37 -85z" />
<glyph unicode="&#xb1;" horiz-adv-x="1155" d="M82 985h332v283l325 -21v-262h314l-21 -307h-293v-301l-325 20v281h-312zM102 -39l9 322l942 -15l12 -307h-963z" />
<glyph unicode="&#xb2;" horiz-adv-x="798" d="M82 1239l55 80q31 37 65 63.5t74 42.5q41 16 78 22.5t72 6.5t65.5 -5t59.5 -15q55 -25 84 -46.5t43 -37.5q23 -23 37 -60.5t14 -103.5q0 -45 -6 -74t-10 -37l-62 -104q-25 -29 -54.5 -51.5t-57.5 -45.5h172l4 -241h-588l-4 221q20 16 41.5 31.5t44.5 32.5 q20 14 39.5 30.5t38.5 32.5q47 35 86 65.5t45 36.5q16 18 30.5 38t14.5 48q0 25 -13.5 37.5t-31 15.5t-33.5 -2.5t-25 -11.5q-12 -10 -28.5 -29.5t-26.5 -41.5z" />
<glyph unicode="&#xb3;" horiz-adv-x="798" d="M53 852l223 90q10 -25 20.5 -44t31.5 -30q27 -16 69 -16q25 0 41.5 15.5t16.5 37.5q0 23 -18.5 38t-49.5 20l-49 2l-4 165l65 5q29 2 42.5 18t13.5 33q0 25 -15 37q-10 10 -23.5 14t-23.5 4q-25 0 -47 -13.5t-39 -33.5l-28 -47l-207 100q31 55 63.5 92t73.5 66 q41 23 96 34t111 11q66 0 123 -17.5t102 -52.5q33 -25 55.5 -76t22.5 -100q0 -23 -8.5 -50.5t-24.5 -55.5l-43 -51q41 -29 67.5 -68t26.5 -98q0 -39 -14 -78t-37 -68q-49 -45 -117.5 -76.5t-154.5 -31.5q-84 0 -142.5 21.5t-115.5 51.5q-35 29 -60.5 70t-42.5 82z" />
<glyph unicode="&#xb4;" horiz-adv-x="1024" d="M147 1735l637 176l68 -277l-621 -133z" />
<glyph unicode="&#xb5;" horiz-adv-x="1286" d="M96 -356v1462h385v-510q10 -86 57.5 -138t118.5 -52q78 0 128.5 61t50.5 170l-2 471l405 -2v-1135h-385v115q-92 -45 -199 -49q-45 0 -88 10t-86 35v-438h-385z" />
<glyph unicode="&#xb6;" horiz-adv-x="1654" d="M41 897q0 102 35 206.5t112 207.5q86 84 190.5 133t229.5 49h371v-1497h-371v344q-129 2 -233.5 47t-178 121t-114.5 176t-41 213zM1141 -4v1497h370v-1497h-370z" />
<glyph unicode="&#xb7;" horiz-adv-x="481" d="M63 926h363l-16 -338l-342 -6z" />
<glyph unicode="&#xb8;" horiz-adv-x="1024" d="M74 -283l250 441l344 -101l-256 -516z" />
<glyph unicode="&#xb9;" horiz-adv-x="798" d="M111 1300l258 140l217 -4v-799h-314l7 436l-160 -65z" />
<glyph unicode="&#xba;" horiz-adv-x="841" d="M41 715l760 -2v-260h-752zM76 1145q0 100 57 192l111 111q90 51 182 51q84 0 151.5 -31.5t115.5 -83t74 -118t26 -133.5q0 -59 -18.5 -119t-59.5 -109l-62 -59q-98 -70 -211 -70q-123 0 -223 78l-65 68q-39 47 -58.5 105t-19.5 118z" />
<glyph unicode="&#xbb;" horiz-adv-x="1320" d="M31 309l262 359l-256 379l246 215l434 -551l-391 -602zM596 1065l293 227l422 -575l-412 -598l-283 221l271 334z" />
<glyph unicode="&#xbc;" horiz-adv-x="2004" d="M48 1300l258 140l217 -4v-799h-314l7 436l-160 -65zM438 102l803 1407l279 -186l-793 -1389zM1261 410l359 391h276v-310l102 -8v-250h-102v-233h-311l16 197h-313z" />
<glyph unicode="&#xbd;" horiz-adv-x="2004" d="M54 1300l258 140l217 -4v-799h-314l7 436l-160 -65zM393 102l803 1407l279 -186l-793 -1389zM1309 623l55 80q31 37 65 63.5t74 42.5q41 16 78 22.5t72 6.5t65.5 -5t59.5 -15q55 -25 84 -46.5t43 -37.5q23 -23 37 -60.5t14 -103.5q0 -45 -6 -74t-10 -37l-62 -104 q-25 -29 -54.5 -51.5t-57.5 -45.5h172l4 -241h-588l-4 221q20 16 41.5 31.5t44.5 32.5q20 14 39.5 30.5t38.5 32.5q47 35 86 65.5t45 36.5q16 18 30.5 38t14.5 48q0 25 -13.5 37.5t-31 15.5t-33.5 -2.5t-25 -11.5q-12 -10 -28.5 -29.5t-26.5 -41.5z" />
<glyph unicode="&#xbe;" horiz-adv-x="2004" d="M53 852l223 90q10 -25 20.5 -44t31.5 -30q27 -16 69 -16q25 0 41.5 15.5t16.5 37.5q0 23 -18.5 38t-49.5 20l-49 2l-4 165l65 5q29 2 42.5 18t13.5 33q0 25 -15 37q-10 10 -23.5 14t-23.5 4q-25 0 -47 -13.5t-39 -33.5l-28 -47l-207 100q31 55 63.5 92t73.5 66 q41 23 96 34t111 11q66 0 123 -17.5t102 -52.5q33 -25 55.5 -76t22.5 -100q0 -23 -8.5 -50.5t-24.5 -55.5l-43 -51q41 -29 67.5 -68t26.5 -98q0 -39 -14 -78t-37 -68q-49 -45 -117.5 -76.5t-154.5 -31.5q-84 0 -142.5 21.5t-115.5 51.5q-35 29 -60.5 70t-42.5 82zM514 102 l803 1407l279 -186l-793 -1389zM1261 410l359 391h276v-310l102 -8v-250h-102v-233h-311l16 197h-313z" />
<glyph unicode="&#xbf;" horiz-adv-x="1116" d="M43 434q0 78 24.5 161t69.5 148l228 342l333 -172l-202 -311l-17 -29q-10 -14 -18 -38.5t-8 -42.5q0 -51 38.5 -88t90.5 -37q55 2 93 35.5t46 111.5l366 -2q0 -141 -45 -240l-217 -227q-72 -37 -150.5 -54.5t-160.5 -15.5q-109 2 -196 42t-148 103.5t-94 145.5t-33 168z M342 1145v338l399 8l-10 -332z" />
<glyph unicode="&#xc0;" d="M10 -8l475 1442h568l424 -1434l-428 -4l-78 272h-447l-88 -282zM445 1638l80 273l622 -166l-69 -244z" />
<glyph unicode="&#xc1;" d="M10 -8l475 1442h568l424 -1434l-428 -4l-78 272h-447l-88 -282zM397 1735l637 176l68 -277l-621 -133z" />
<glyph unicode="&#xc2;" d="M10 -8l475 1442h568l424 -1434l-428 -4l-78 272h-447l-88 -282zM352 1692l379 252l435 -244l-130 -201l-272 164l-276 -158z" />
<glyph unicode="&#xc3;" d="M10 -8l475 1442h568l424 -1434l-428 -4l-78 272h-447l-88 -282zM336 1543v20q0 88 28.5 148.5t72.5 97t95.5 53t98.5 16.5q63 0 109.5 -22.5t72.5 -47.5q16 -14 38 -34.5t54 -20.5q31 0 57.5 24.5t26.5 77.5v11l213 -49q-14 -141 -97 -219t-204 -78q-61 0 -100 18 t-65.5 41t-50 41t-54.5 18q-35 0 -57.5 -21.5t-22.5 -66.5l-213 -26q-2 10 -2 19z" />
<glyph unicode="&#xc4;" d="M10 -8l475 1442h568l424 -1434l-428 -4l-78 272h-447l-88 -282zM414 1855l319 -8l-8 -297l-307 -4zM864 1851l308 4l4 -309l-297 -4z" />
<glyph unicode="&#xc5;" d="M10 -8l475 1444q-27 59 -26 131q0 51 16.5 102t48.5 92l60 60q45 35 95 50t99 15q106 0 187 -55l55 -55q35 -41 51 -94.5t16 -106.5q0 -74 -34 -143l424 -1432l-428 -4l-78 272h-447l-88 -282zM676 1577q0 -39 26.5 -65.5t67.5 -26.5t68.5 26.5t27.5 65.5 q0 47 -28.5 71.5t-67.5 24.5q-37 0 -65.5 -26.5t-28.5 -69.5z" />
<glyph unicode="&#xc6;" horiz-adv-x="1933" d="M10 -27l537 1442h350l866 17l9 -351l-410 -8l-4 -205l430 -2v-377h-430v-184l426 12l8 -327l-891 -21l-2 281h-354l-109 -283z" />
<glyph unicode="&#xc7;" horiz-adv-x="1392" d="M61 758q0 70 16.5 152.5t53.5 165.5t94.5 160t139 136.5t189.5 95t245 35.5q135 0 262 -46t237 -138l-268 -416q-41 53 -99.5 81t-121.5 28q-57 0 -109.5 -22.5t-91.5 -61.5t-62.5 -91.5t-23.5 -109.5q0 -59 23.5 -110.5t62.5 -90.5t91.5 -61.5t109.5 -22.5q68 0 130 32 t103 91l316 -356l-82 -82q-164 -115 -354 -133l-224 -453l-338 176l185 326q-55 25 -115 59l-244 236q-61 96 -93 202.5t-32 217.5z" />
<glyph unicode="&#xc8;" horiz-adv-x="1187" d="M152 1415l866 17l8 -351l-410 -8l-4 -205l430 -2v-377h-430v-184l426 12l9 -327l-891 -21zM223 1638l80 273l622 -166l-69 -244z" />
<glyph unicode="&#xc9;" horiz-adv-x="1187" d="M152 1415l866 17l8 -351l-410 -8l-4 -205l430 -2v-377h-430v-184l426 12l9 -327l-891 -21zM249 1735l637 176l68 -277l-621 -133z" />
<glyph unicode="&#xca;" horiz-adv-x="1187" d="M152 1415l866 17l8 -351l-410 -8l-4 -205l430 -2v-377h-430v-184l426 12l9 -327l-891 -21zM186 1692l379 252l435 -244l-130 -201l-272 164l-276 -158z" />
<glyph unicode="&#xcb;" horiz-adv-x="1187" d="M152 1415l866 17l8 -351l-410 -8l-4 -205l430 -2v-377h-430v-184l426 12l9 -327l-891 -21zM205 1855l319 -8l-8 -297l-307 -4zM655 1851l308 4l4 -309l-297 -4z" />
<glyph unicode="&#xcc;" horiz-adv-x="778" d="M41 1638l80 273l622 -166l-69 -244zM143 -35v1465h492v-1465h-492z" />
<glyph unicode="&#xcd;" horiz-adv-x="778" d="M26 1735l637 176l68 -277l-621 -133zM143 -35v1465h492v-1465h-492z" />
<glyph unicode="&#xce;" horiz-adv-x="778" d="M-17 1692l379 252l435 -244l-130 -201l-272 164l-276 -158zM143 -35v1465h492v-1465h-492z" />
<glyph unicode="&#xcf;" horiz-adv-x="778" d="M2 1855l319 -8l-8 -297l-307 -4zM143 -35v1465h492v-1465h-492zM452 1851l308 4l4 -309l-297 -4z" />
<glyph unicode="&#xd0;" horiz-adv-x="1431" d="M0 934l213 2v528h434q154 0 290 -58t237.5 -159.5t160 -238t58.5 -289.5q0 -219 -119 -410l-234 -233q-90 -53 -188 -79t-199 -26h-440v516l-211 2zM651 446q57 0 106.5 21.5t86.5 58.5t58.5 86.5t21.5 106.5q0 55 -21.5 104t-58.5 86t-87 59.5t-106 22.5v-545z" />
<glyph unicode="&#xd1;" horiz-adv-x="1619" d="M121 -8v1460h457l444 -985l4 956l436 9l-18 -1418l-588 -14l-373 834v-842h-362zM383 1543v20q0 88 28.5 148.5t72.5 97t95.5 53t98.5 16.5q63 0 109.5 -22.5t72.5 -47.5q16 -14 38 -34.5t54 -20.5q31 0 57.5 24.5t26.5 77.5v11l213 -49q-14 -141 -97 -219t-204 -78 q-61 0 -100 18t-65.5 41t-50 41t-54.5 18q-35 0 -57.5 -21.5t-22.5 -66.5l-213 -26q-2 10 -2 19z" />
<glyph unicode="&#xd2;" horiz-adv-x="1636" d="M63 780q0 219 119 410l234 233q90 53 188.5 79t198.5 26q176 0 318.5 -66.5t242.5 -176t154.5 -248t54.5 -279.5q0 -129 -41 -252t-127 -230l-127 -124q-100 -72 -214 -107t-230 -35q-125 0 -245 40t-224 120l-142 141q-80 104 -120 224t-40 245zM467 1699l80 273 l622 -166l-69 -244zM524 750q0 -63 24.5 -115.5t64.5 -90.5t91.5 -58.5t104.5 -20.5q76 0 145 41l101 100q41 70 41 146q0 57 -23.5 109t-62.5 90t-91.5 60.5t-109.5 22.5q-59 0 -110.5 -22.5t-90.5 -61.5t-61.5 -91t-22.5 -109z" />
<glyph unicode="&#xd3;" horiz-adv-x="1636" d="M63 780q0 219 119 410l234 233q90 53 188.5 79t198.5 26q176 0 318.5 -66.5t242.5 -176t154.5 -248t54.5 -279.5q0 -129 -41 -252t-127 -230l-127 -124q-100 -72 -214 -107t-230 -35q-125 0 -245 40t-224 120l-142 141q-80 104 -120 224t-40 245zM452 1817l637 176 l68 -277l-621 -133zM524 750q0 -63 24.5 -115.5t64.5 -90.5t91.5 -58.5t104.5 -20.5q76 0 145 41l101 100q41 70 41 146q0 57 -23.5 109t-62.5 90t-91.5 60.5t-109.5 22.5q-59 0 -110.5 -22.5t-90.5 -61.5t-61.5 -91t-22.5 -109z" />
<glyph unicode="&#xd4;" horiz-adv-x="1636" d="M63 780q0 219 119 410l234 233q90 53 188.5 79t198.5 26q176 0 318.5 -66.5t242.5 -176t154.5 -248t54.5 -279.5q0 -129 -41 -252t-127 -230l-127 -124q-100 -72 -214 -107t-230 -35q-125 0 -245 40t-224 120l-142 141q-80 104 -120 224t-40 245zM409 1774l379 252 l435 -244l-130 -201l-272 164l-276 -158zM524 750q0 -63 24.5 -115.5t64.5 -90.5t91.5 -58.5t104.5 -20.5q76 0 145 41l101 100q41 70 41 146q0 57 -23.5 109t-62.5 90t-91.5 60.5t-109.5 22.5q-59 0 -110.5 -22.5t-90.5 -61.5t-61.5 -91t-22.5 -109z" />
<glyph unicode="&#xd5;" horiz-adv-x="1636" d="M63 780q0 219 119 410l234 233q90 53 188.5 79t198.5 26q176 0 318.5 -66.5t242.5 -176t154.5 -248t54.5 -279.5q0 -129 -41 -252t-127 -230l-127 -124q-100 -72 -214 -107t-230 -35q-125 0 -245 40t-224 120l-142 141q-80 104 -120 224t-40 245zM391 1625v20 q0 88 28.5 148.5t72.5 97t95.5 53t98.5 16.5q63 0 109.5 -22.5t72.5 -47.5q16 -14 38 -34.5t54 -20.5q31 0 57.5 24.5t26.5 77.5v11l213 -49q-14 -141 -97 -219t-204 -78q-61 0 -100 18t-65.5 41t-50 41t-54.5 18q-35 0 -57.5 -21.5t-22.5 -66.5l-213 -26q-2 10 -2 19z M524 750q0 -63 24.5 -115.5t64.5 -90.5t91.5 -58.5t104.5 -20.5q76 0 145 41l101 100q41 70 41 146q0 57 -23.5 109t-62.5 90t-91.5 60.5t-109.5 22.5q-59 0 -110.5 -22.5t-90.5 -61.5t-61.5 -91t-22.5 -109z" />
<glyph unicode="&#xd6;" horiz-adv-x="1636" d="M63 780q0 219 119 410l234 233q90 53 188.5 79t198.5 26q176 0 318.5 -66.5t242.5 -176t154.5 -248t54.5 -279.5q0 -129 -41 -252t-127 -230l-127 -124q-100 -72 -214 -107t-230 -35q-125 0 -245 40t-224 120l-142 141q-80 104 -120 224t-40 245zM428 1937l319 -8 l-8 -297l-307 -4zM524 750q0 -63 24.5 -115.5t64.5 -90.5t91.5 -58.5t104.5 -20.5q76 0 145 41l101 100q41 70 41 146q0 57 -23.5 109t-62.5 90t-91.5 60.5t-109.5 22.5q-59 0 -110.5 -22.5t-90.5 -61.5t-61.5 -91t-22.5 -109zM878 1933l308 4l4 -309l-297 -4z" />
<glyph unicode="&#xd7;" horiz-adv-x="1155" d="M119 479l217 240l-215 233l205 232l235 -219l232 217l251 -230l-235 -250l215 -233l-203 -205l-219 195l-244 -219z" />
<glyph unicode="&#xd8;" horiz-adv-x="1636" d="M63 780q0 219 119 410l234 233q90 53 188 79t199 26q78 0 148.5 -14.5t135.5 -40.5l162 229l310 -238l-160 -221q84 -104 129 -230t45 -255t-41 -252t-127 -230l-127 -124q-100 -72 -214 -107t-230 -35q-147 0 -281 51l-172 -243l-311 233l170 242l-17 18 q-80 104 -120 224t-40 245zM524 750q0 -63 24.5 -115.5t64.5 -90.5t91.5 -58.5t104.5 -20.5q76 0 145 41l101 100q41 70 41 146q0 57 -23.5 109t-62.5 90t-91.5 60.5t-109.5 22.5q-59 0 -110.5 -22.5t-90.5 -61.5t-61.5 -91t-22.5 -109z" />
<glyph unicode="&#xd9;" horiz-adv-x="1679" d="M90 657v777h479v-777q0 -127 66.5 -205.5t177.5 -78.5q109 0 177.5 74.5t68.5 209.5v736l497 20v-756q0 -111 -25.5 -216t-84.5 -201l-227 -238q-92 -53 -192 -78.5t-202 -25.5q-111 0 -226.5 39.5t-219.5 119.5l-141 142q-78 102 -113 219t-35 239zM408 1638l80 273 l622 -166l-69 -244z" />
<glyph unicode="&#xda;" horiz-adv-x="1679" d="M90 657v777h479v-777q0 -127 66.5 -205.5t177.5 -78.5q109 0 177.5 74.5t68.5 209.5v736l497 20v-756q0 -111 -25.5 -216t-84.5 -201l-227 -238q-92 -53 -192 -78.5t-202 -25.5q-111 0 -226.5 39.5t-219.5 119.5l-141 142q-78 102 -113 219t-35 239zM516 1755l637 176 l68 -277l-621 -133z" />
<glyph unicode="&#xdb;" horiz-adv-x="1679" d="M90 657v777h479v-777q0 -127 66.5 -205.5t177.5 -78.5q109 0 177.5 74.5t68.5 209.5v736l497 20v-756q0 -111 -25.5 -216t-84.5 -201l-227 -238q-92 -53 -192 -78.5t-202 -25.5q-111 0 -226.5 39.5t-219.5 119.5l-141 142q-78 102 -113 219t-35 239zM432 1692l379 252 l435 -244l-130 -201l-272 164l-276 -158z" />
<glyph unicode="&#xdc;" horiz-adv-x="1679" d="M90 657v777h479v-777q0 -127 66.5 -205.5t177.5 -78.5q109 0 177.5 74.5t68.5 209.5v736l497 20v-756q0 -111 -25.5 -216t-84.5 -201l-227 -238q-92 -53 -192 -78.5t-202 -25.5q-111 0 -226.5 39.5t-219.5 119.5l-141 142q-78 102 -113 219t-35 239zM451 1855l319 -8 l-8 -297l-307 -4zM901 1851l308 4l4 -309l-297 -4z" />
<glyph unicode="&#xdd;" horiz-adv-x="1562" d="M8 1456l428 41l297 -514l391 524l449 -82l-594 -800v-639h-510v657zM505 1776l637 176l68 -277l-621 -133z" />
<glyph unicode="&#xde;" horiz-adv-x="1218" d="M145 -39v1593h433v-225q119 0 223 -45t183 -124t124 -183t45 -223q0 -121 -45 -225.5t-123 -183.5t-183.5 -124t-223.5 -45v-215h-433zM578 557q43 0 80.5 16.5t65.5 44t44 65.5t16 81t-16 80t-44 64.5t-65.5 45t-80.5 17.5v-414z" />
<glyph unicode="&#xdf;" horiz-adv-x="2222" d="M45 207l285 182q4 -10 17 -29.5t36 -39t53.5 -35t71.5 -15.5q51 0 85 40t34 87q0 92 -150 142q-78 27 -141.5 66.5t-114.5 90.5q-29 29 -53.5 57.5t-43 62.5t-29.5 78t-11 105q0 49 9 103.5t34 108t65.5 104.5t104.5 96q61 43 140 74t200 31q111 0 193.5 -37t130.5 -78 l77 -84l-237 -227q-6 12 -23.5 23t-39 21.5t-44 16.5t-43.5 6q-66 0 -99.5 -35t-33.5 -80q0 -70 72 -116q18 -12 45 -21.5t55 -25.5q29 -16 64.5 -34.5t76.5 -41.5q92 -47 136.5 -100.5t70.5 -122.5q12 -35 22.5 -70t10.5 -76q0 -80 -17.5 -148.5t-47.5 -125.5 q-31 -57 -82.5 -104.5t-113.5 -81t-131 -52t-136 -18.5q-45 0 -92.5 8t-91.5 22.5t-82.5 33t-69.5 38.5q-106 76 -162 201zM1151 207l285 182q4 -10 17 -29.5t36 -39t53.5 -35t71.5 -15.5q51 0 85 40t34 87q0 92 -150 142q-78 27 -141.5 66.5t-114.5 90.5q-29 29 -53.5 57.5 t-43 62.5t-29.5 78t-11 105q0 49 9 103.5t34 108t65.5 104.5t104.5 96q61 43 140 74t200 31q111 0 193.5 -37t130.5 -78l77 -84l-237 -227q-6 12 -23.5 23t-39 21.5t-44 16.5t-43.5 6q-66 0 -99.5 -35t-33.5 -80q0 -70 72 -116q18 -12 45 -21.5t55 -25.5q29 -16 64.5 -34.5 t76.5 -41.5q92 -47 136.5 -100.5t70.5 -122.5q12 -35 22.5 -70t10.5 -76q0 -80 -17.5 -148.5t-47.5 -125.5q-31 -57 -82.5 -104.5t-113.5 -81t-131 -52t-136 -18.5q-45 0 -92.5 8t-91.5 22.5t-82.5 33t-69.5 38.5q-106 76 -162 201z" />
<glyph unicode="&#xe0;" d="M10 -8l475 1442h568l424 -1434l-428 -4l-78 272h-447l-88 -282zM445 1638l80 273l622 -166l-69 -244z" />
<glyph unicode="&#xe1;" d="M10 -8l475 1442h568l424 -1434l-428 -4l-78 272h-447l-88 -282zM397 1735l637 176l68 -277l-621 -133z" />
<glyph unicode="&#xe2;" d="M10 -8l475 1442h568l424 -1434l-428 -4l-78 272h-447l-88 -282zM352 1692l379 252l435 -244l-130 -201l-272 164l-276 -158z" />
<glyph unicode="&#xe3;" d="M10 -8l475 1442h568l424 -1434l-428 -4l-78 272h-447l-88 -282zM336 1543v20q0 88 28.5 148.5t72.5 97t95.5 53t98.5 16.5q63 0 109.5 -22.5t72.5 -47.5q16 -14 38 -34.5t54 -20.5q31 0 57.5 24.5t26.5 77.5v11l213 -49q-14 -141 -97 -219t-204 -78q-61 0 -100 18 t-65.5 41t-50 41t-54.5 18q-35 0 -57.5 -21.5t-22.5 -66.5l-213 -26q-2 10 -2 19z" />
<glyph unicode="&#xe4;" d="M10 -8l475 1442h568l424 -1434l-428 -4l-78 272h-447l-88 -282zM414 1855l319 -8l-8 -297l-307 -4zM864 1851l308 4l4 -309l-297 -4z" />
<glyph unicode="&#xe5;" d="M10 -8l475 1444q-27 59 -26 131q0 51 16.5 102t48.5 92l60 60q45 35 95 50t99 15q106 0 187 -55l55 -55q35 -41 51 -94.5t16 -106.5q0 -74 -34 -143l424 -1432l-428 -4l-78 272h-447l-88 -282zM676 1577q0 -39 26.5 -65.5t67.5 -26.5t68.5 26.5t27.5 65.5 q0 47 -28.5 71.5t-67.5 24.5q-37 0 -65.5 -26.5t-28.5 -69.5z" />
<glyph unicode="&#xe6;" horiz-adv-x="1933" d="M10 -27l537 1442h350l866 17l9 -351l-410 -8l-4 -205l430 -2v-377h-430v-184l426 12l8 -327l-891 -21l-2 281h-354l-109 -283z" />
<glyph unicode="&#xe7;" horiz-adv-x="1392" d="M61 758q0 70 16.5 152.5t53.5 165.5t94.5 160t139 136.5t189.5 95t245 35.5q135 0 262 -46t237 -138l-268 -416q-41 53 -99.5 81t-121.5 28q-57 0 -109.5 -22.5t-91.5 -61.5t-62.5 -91.5t-23.5 -109.5q0 -59 23.5 -110.5t62.5 -90.5t91.5 -61.5t109.5 -22.5q68 0 130 32 t103 91l316 -356l-82 -82q-164 -115 -354 -133l-224 -453l-338 176l185 326q-55 25 -115 59l-244 236q-61 96 -93 202.5t-32 217.5z" />
<glyph unicode="&#xe8;" horiz-adv-x="1187" d="M152 1415l866 17l8 -351l-410 -8l-4 -205l430 -2v-377h-430v-184l426 12l9 -327l-891 -21zM223 1638l80 273l622 -166l-69 -244z" />
<glyph unicode="&#xe9;" horiz-adv-x="1187" d="M152 1415l866 17l8 -351l-410 -8l-4 -205l430 -2v-377h-430v-184l426 12l9 -327l-891 -21zM249 1735l637 176l68 -277l-621 -133z" />
<glyph unicode="&#xea;" horiz-adv-x="1187" d="M152 1415l866 17l8 -351l-410 -8l-4 -205l430 -2v-377h-430v-184l426 12l9 -327l-891 -21zM186 1692l379 252l435 -244l-130 -201l-272 164l-276 -158z" />
<glyph unicode="&#xeb;" horiz-adv-x="1187" d="M152 1415l866 17l8 -351l-410 -8l-4 -205l430 -2v-377h-430v-184l426 12l9 -327l-891 -21zM205 1855l319 -8l-8 -297l-307 -4zM655 1851l308 4l4 -309l-297 -4z" />
<glyph unicode="&#xec;" horiz-adv-x="778" d="M41 1638l80 273l622 -166l-69 -244zM143 -35v1465h492v-1465h-492z" />
<glyph unicode="&#xed;" horiz-adv-x="778" d="M26 1735l637 176l68 -277l-621 -133zM143 -35v1465h492v-1465h-492z" />
<glyph unicode="&#xee;" horiz-adv-x="778" d="M-17 1692l379 252l435 -244l-130 -201l-272 164l-276 -158zM143 -35v1465h492v-1465h-492z" />
<glyph unicode="&#xef;" horiz-adv-x="778" d="M2 1855l319 -8l-8 -297l-307 -4zM143 -35v1465h492v-1465h-492zM452 1851l308 4l4 -309l-297 -4z" />
<glyph unicode="&#xf0;" horiz-adv-x="1431" d="M0 934l213 2v528h434q154 0 290 -58t237.5 -159.5t160 -238t58.5 -289.5q0 -219 -119 -410l-234 -233q-90 -53 -188 -79t-199 -26h-440v516l-211 2zM651 446q57 0 106.5 21.5t86.5 58.5t58.5 86.5t21.5 106.5q0 55 -21.5 104t-58.5 86t-87 59.5t-106 22.5v-545z" />
<glyph unicode="&#xf1;" horiz-adv-x="1619" d="M121 -8v1460h457l444 -985l4 956l436 9l-18 -1418l-588 -14l-373 834v-842h-362zM383 1543v20q0 88 28.5 148.5t72.5 97t95.5 53t98.5 16.5q63 0 109.5 -22.5t72.5 -47.5q16 -14 38 -34.5t54 -20.5q31 0 57.5 24.5t26.5 77.5v11l213 -49q-14 -141 -97 -219t-204 -78 q-61 0 -100 18t-65.5 41t-50 41t-54.5 18q-35 0 -57.5 -21.5t-22.5 -66.5l-213 -26q-2 10 -2 19z" />
<glyph unicode="&#xf2;" horiz-adv-x="1636" d="M63 780q0 219 119 410l234 233q90 53 188.5 79t198.5 26q176 0 318.5 -66.5t242.5 -176t154.5 -248t54.5 -279.5q0 -129 -41 -252t-127 -230l-127 -124q-100 -72 -214 -107t-230 -35q-125 0 -245 40t-224 120l-142 141q-80 104 -120 224t-40 245zM467 1699l80 273 l622 -166l-69 -244zM524 750q0 -63 24.5 -115.5t64.5 -90.5t91.5 -58.5t104.5 -20.5q76 0 145 41l101 100q41 70 41 146q0 57 -23.5 109t-62.5 90t-91.5 60.5t-109.5 22.5q-59 0 -110.5 -22.5t-90.5 -61.5t-61.5 -91t-22.5 -109z" />
<glyph unicode="&#xf3;" horiz-adv-x="1636" d="M63 780q0 219 119 410l234 233q90 53 188.5 79t198.5 26q176 0 318.5 -66.5t242.5 -176t154.5 -248t54.5 -279.5q0 -129 -41 -252t-127 -230l-127 -124q-100 -72 -214 -107t-230 -35q-125 0 -245 40t-224 120l-142 141q-80 104 -120 224t-40 245zM452 1817l637 176 l68 -277l-621 -133zM524 750q0 -63 24.5 -115.5t64.5 -90.5t91.5 -58.5t104.5 -20.5q76 0 145 41l101 100q41 70 41 146q0 57 -23.5 109t-62.5 90t-91.5 60.5t-109.5 22.5q-59 0 -110.5 -22.5t-90.5 -61.5t-61.5 -91t-22.5 -109z" />
<glyph unicode="&#xf4;" horiz-adv-x="1636" d="M63 780q0 219 119 410l234 233q90 53 188.5 79t198.5 26q176 0 318.5 -66.5t242.5 -176t154.5 -248t54.5 -279.5q0 -129 -41 -252t-127 -230l-127 -124q-100 -72 -214 -107t-230 -35q-125 0 -245 40t-224 120l-142 141q-80 104 -120 224t-40 245zM409 1774l379 252 l435 -244l-130 -201l-272 164l-276 -158zM524 750q0 -63 24.5 -115.5t64.5 -90.5t91.5 -58.5t104.5 -20.5q76 0 145 41l101 100q41 70 41 146q0 57 -23.5 109t-62.5 90t-91.5 60.5t-109.5 22.5q-59 0 -110.5 -22.5t-90.5 -61.5t-61.5 -91t-22.5 -109z" />
<glyph unicode="&#xf5;" horiz-adv-x="1636" d="M63 780q0 219 119 410l234 233q90 53 188.5 79t198.5 26q176 0 318.5 -66.5t242.5 -176t154.5 -248t54.5 -279.5q0 -129 -41 -252t-127 -230l-127 -124q-100 -72 -214 -107t-230 -35q-125 0 -245 40t-224 120l-142 141q-80 104 -120 224t-40 245zM391 1625v20 q0 88 28.5 148.5t72.5 97t95.5 53t98.5 16.5q63 0 109.5 -22.5t72.5 -47.5q16 -14 38 -34.5t54 -20.5q31 0 57.5 24.5t26.5 77.5v11l213 -49q-14 -141 -97 -219t-204 -78q-61 0 -100 18t-65.5 41t-50 41t-54.5 18q-35 0 -57.5 -21.5t-22.5 -66.5l-213 -26q-2 10 -2 19z M524 750q0 -63 24.5 -115.5t64.5 -90.5t91.5 -58.5t104.5 -20.5q76 0 145 41l101 100q41 70 41 146q0 57 -23.5 109t-62.5 90t-91.5 60.5t-109.5 22.5q-59 0 -110.5 -22.5t-90.5 -61.5t-61.5 -91t-22.5 -109z" />
<glyph unicode="&#xf6;" horiz-adv-x="1636" d="M63 780q0 219 119 410l234 233q90 53 188.5 79t198.5 26q176 0 318.5 -66.5t242.5 -176t154.5 -248t54.5 -279.5q0 -129 -41 -252t-127 -230l-127 -124q-100 -72 -214 -107t-230 -35q-125 0 -245 40t-224 120l-142 141q-80 104 -120 224t-40 245zM428 1937l319 -8 l-8 -297l-307 -4zM524 750q0 -63 24.5 -115.5t64.5 -90.5t91.5 -58.5t104.5 -20.5q76 0 145 41l101 100q41 70 41 146q0 57 -23.5 109t-62.5 90t-91.5 60.5t-109.5 22.5q-59 0 -110.5 -22.5t-90.5 -61.5t-61.5 -91t-22.5 -109zM878 1933l308 4l4 -309l-297 -4z" />
<glyph unicode="&#xf7;" horiz-adv-x="1155" d="M102 561v342l957 19l-6 -367zM418 428l307 -6l-12 -287l-289 -4zM440 1313h293l10 -285l-299 -6z" />
<glyph unicode="&#xf8;" horiz-adv-x="1636" d="M63 780q0 219 119 410l234 233q90 53 188 79t199 26q78 0 148.5 -14.5t135.5 -40.5l162 229l310 -238l-160 -221q84 -104 129 -230t45 -255t-41 -252t-127 -230l-127 -124q-100 -72 -214 -107t-230 -35q-147 0 -281 51l-172 -243l-311 233l170 242l-17 18 q-80 104 -120 224t-40 245zM524 750q0 -63 24.5 -115.5t64.5 -90.5t91.5 -58.5t104.5 -20.5q76 0 145 41l101 100q41 70 41 146q0 57 -23.5 109t-62.5 90t-91.5 60.5t-109.5 22.5q-59 0 -110.5 -22.5t-90.5 -61.5t-61.5 -91t-22.5 -109z" />
<glyph unicode="&#xf9;" horiz-adv-x="1679" d="M90 657v777h479v-777q0 -127 66.5 -205.5t177.5 -78.5q109 0 177.5 74.5t68.5 209.5v736l497 20v-756q0 -111 -25.5 -216t-84.5 -201l-227 -238q-92 -53 -192 -78.5t-202 -25.5q-111 0 -226.5 39.5t-219.5 119.5l-141 142q-78 102 -113 219t-35 239zM408 1638l80 273 l622 -166l-69 -244z" />
<glyph unicode="&#xfa;" horiz-adv-x="1679" d="M90 657v777h479v-777q0 -127 66.5 -205.5t177.5 -78.5q109 0 177.5 74.5t68.5 209.5v736l497 20v-756q0 -111 -25.5 -216t-84.5 -201l-227 -238q-92 -53 -192 -78.5t-202 -25.5q-111 0 -226.5 39.5t-219.5 119.5l-141 142q-78 102 -113 219t-35 239zM516 1755l637 176 l68 -277l-621 -133z" />
<glyph unicode="&#xfb;" horiz-adv-x="1679" d="M90 657v777h479v-777q0 -127 66.5 -205.5t177.5 -78.5q109 0 177.5 74.5t68.5 209.5v736l497 20v-756q0 -111 -25.5 -216t-84.5 -201l-227 -238q-92 -53 -192 -78.5t-202 -25.5q-111 0 -226.5 39.5t-219.5 119.5l-141 142q-78 102 -113 219t-35 239zM432 1692l379 252 l435 -244l-130 -201l-272 164l-276 -158z" />
<glyph unicode="&#xfc;" horiz-adv-x="1679" d="M90 657v777h479v-777q0 -127 66.5 -205.5t177.5 -78.5q109 0 177.5 74.5t68.5 209.5v736l497 20v-756q0 -111 -25.5 -216t-84.5 -201l-227 -238q-92 -53 -192 -78.5t-202 -25.5q-111 0 -226.5 39.5t-219.5 119.5l-141 142q-78 102 -113 219t-35 239zM451 1855l319 -8 l-8 -297l-307 -4zM901 1851l308 4l4 -309l-297 -4z" />
<glyph unicode="&#xfd;" horiz-adv-x="1562" d="M8 1456l428 41l297 -514l391 524l449 -82l-594 -800v-639h-510v657zM505 1776l637 176l68 -277l-621 -133z" />
<glyph unicode="&#xfe;" horiz-adv-x="1218" d="M145 -39v1593h433v-225q119 0 223 -45t183 -124t124 -183t45 -223q0 -121 -45 -225.5t-123 -183.5t-183.5 -124t-223.5 -45v-215h-433zM578 557q43 0 80.5 16.5t65.5 44t44 65.5t16 81t-16 80t-44 64.5t-65.5 45t-80.5 17.5v-414z" />
<glyph unicode="&#xff;" horiz-adv-x="1562" d="M8 1456l428 41l297 -514l391 524l449 -82l-594 -800v-639h-510v657zM399 1855l319 -8l-8 -297l-307 -4zM849 1851l308 4l4 -309l-297 -4z" />
<glyph unicode="&#x152;" horiz-adv-x="1843" d="M63 692q0 211 119 395l234 228q90 51 188 75.5t199 24.5l870 17l8 -351l-409 -8l-4 -205l430 -2v-377h-430v-184l426 12l8 -327l-891 -21v2h-2q-154 0 -290 56.5t-237.5 155t-160 229t-58.5 280.5zM532 696q0 -55 21.5 -105t58.5 -87t87.5 -58.5t105.5 -21.5v545 q-57 0 -106.5 -21.5t-86.5 -58.5t-58.5 -86t-21.5 -107z" />
<glyph unicode="&#x153;" horiz-adv-x="1843" d="M63 692q0 211 119 395l234 228q90 51 188 75.5t199 24.5l870 17l8 -351l-409 -8l-4 -205l430 -2v-377h-430v-184l426 12l8 -327l-891 -21v2h-2q-154 0 -290 56.5t-237.5 155t-160 229t-58.5 280.5zM532 696q0 -55 21.5 -105t58.5 -87t87.5 -58.5t105.5 -21.5v545 q-57 0 -106.5 -21.5t-86.5 -58.5t-58.5 -86t-21.5 -107z" />
<glyph unicode="&#x178;" horiz-adv-x="1562" d="M8 1456l428 41l297 -514l391 524l449 -82l-594 -800v-639h-510v657zM379 1855l319 -8l-8 -297l-307 -4zM829 1851l308 4l4 -309l-297 -4z" />
<glyph unicode="&#x2c6;" horiz-adv-x="1024" d="M104 1692l379 252l435 -244l-130 -201l-272 164l-276 -158z" />
<glyph unicode="&#x2dc;" horiz-adv-x="1024" d="M86 1543v20q0 88 28.5 148.5t72.5 97t95.5 53t98.5 16.5q63 0 109.5 -22.5t72.5 -47.5q16 -14 38 -34.5t54 -20.5q31 0 57.5 24.5t26.5 77.5v11l213 -49q-14 -141 -97 -219t-204 -78q-61 0 -100 18t-65.5 41t-50 41t-54.5 18q-35 0 -57.5 -21.5t-22.5 -66.5l-213 -26 q-2 10 -2 19z" />
<glyph unicode="&#x2000;" horiz-adv-x="1013" />
<glyph unicode="&#x2001;" horiz-adv-x="2026" />
<glyph unicode="&#x2002;" horiz-adv-x="1013" />
<glyph unicode="&#x2003;" horiz-adv-x="2026" />
<glyph unicode="&#x2004;" horiz-adv-x="675" />
<glyph unicode="&#x2005;" horiz-adv-x="506" />
<glyph unicode="&#x2006;" horiz-adv-x="337" />
<glyph unicode="&#x2007;" horiz-adv-x="337" />
<glyph unicode="&#x2008;" horiz-adv-x="253" />
<glyph unicode="&#x2009;" horiz-adv-x="405" />
<glyph unicode="&#x200a;" horiz-adv-x="112" />
<glyph unicode="&#x2010;" horiz-adv-x="1011" d="M102 535l4 415l824 -6l-21 -389z" />
<glyph unicode="&#x2011;" horiz-adv-x="1011" d="M102 535l4 415l824 -6l-21 -389z" />
<glyph unicode="&#x2012;" horiz-adv-x="1011" d="M102 535l4 415l824 -6l-21 -389z" />
<glyph unicode="&#x2013;" horiz-adv-x="1024" d="M0 944l1018 -10l6 -299l-1010 2z" />
<glyph unicode="&#x2014;" horiz-adv-x="2048" d="M0 625l20 319l2028 -14l-23 -320z" />
<glyph unicode="&#x2018;" horiz-adv-x="563" d="M43 1001l166 525l266 2l-67 -555z" />
<glyph unicode="&#x2019;" horiz-adv-x="497" d="M88 961l23 534l344 10l-101 -563z" />
<glyph unicode="&#x201a;" horiz-adv-x="497" d="M88 -260l23 569l344 -33l-101 -524z" />
<glyph unicode="&#x201c;" horiz-adv-x="937" d="M35 1018l131 498l258 -3l-57 -495h-332zM479 1028l121 492l262 8l-45 -516z" />
<glyph unicode="&#x201d;" horiz-adv-x="886" d="M78 987l22 522l324 -2l-86 -516zM496 991l8 510l346 -8l-90 -485z" />
<glyph unicode="&#x201e;" horiz-adv-x="915" d="M88 -270l41 567l303 -25l-70 -548zM498 -268l45 524l329 12l-120 -522z" />
<glyph unicode="&#x2022;" horiz-adv-x="776" d="M111 791v30q12 49 39.5 88t64.5 67t81 43t91 15q76 0 145 -41l101 -100q41 -70 41 -145q0 -59 -23.5 -110.5t-62.5 -89.5t-91.5 -60.5t-109.5 -22.5q-59 0 -109.5 21.5t-89.5 60.5q-37 53 -57 108.5t-20 135.5z" />
<glyph unicode="&#x2026;" horiz-adv-x="1595" d="M63 301l343 -8l2 -334l-340 -2zM627 301l340 -2l6 -336l-342 -6zM1180 301l356 -6l4 -326l-350 -12z" />
<glyph unicode="&#x202f;" horiz-adv-x="405" />
<glyph unicode="&#x2039;" horiz-adv-x="768" d="M10 684l412 598l291 -240l-279 -389l303 -309l-284 -235z" />
<glyph unicode="&#x203a;" horiz-adv-x="739" d="M31 1063l276 219l422 -604l-412 -569l-284 202l272 406z" />
<glyph unicode="&#x205f;" horiz-adv-x="506" />
<glyph unicode="&#x20ac;" horiz-adv-x="1161" d="M57 535l6 186h142l-2 80h-133l6 186l125 -2q0 115 36.5 209t109.5 160.5t179.5 103.5t243.5 37h289l10 -389h-270q-72 0 -124 -28.5t-69 -98.5l365 -6l2 -172h-367l4 -80h326l4 -166l-313 -8q16 -68 67 -112t148 -44h237l-4 -387h-229q-293 0 -456 143.5t-179 389.5z" />
<glyph unicode="&#x2122;" horiz-adv-x="2166" d="M41 1133v331h752v-331h-189v-547h-332v547h-231zM895 580l35 874l450 10l97 -452l79 434l459 6l90 -852l-344 -2l-45 516l-110 -532h-277l-115 524l-22 -528z" />
<glyph unicode="&#xe000;" horiz-adv-x="1423" d="M0 0v1423h1423v-1423h-1423z" />
</font>
</defs>
</svg>
